# xmcd
#
# Track frame offsets:
#	150
#	12011
#	23720
#	37979
#	52222
#	65377
#	81388
#	102109
#	116122
#	137964
#	155403
#	169523
#	182214
#	192937
#
# Disc length: 2720 seconds
#
# Revision: 1
# Processed by: cddbd v1.5.2PL0 Copyright (c) Steve Scherf et al.
# Submitted via: audiograbber 1.83.01
#
DISCID=b90a9e0e
DTITLE=Various Artist - Golden Pop Hits 4
DYEAR=2007
DGENRE=Oldies
TTITLE0=Boone, Pat - Speedy Gonzales
TTITLE1=Dekker, Desmond - Israelites
TTITLE2=Love Affair - Everlasting Love
TTITLE3=Smoke, The - My Friend Jack
TTITLE4=Turtles, The - Happy Together
TTITLE5=Gray, Dobie - Drift Away
TTITLE6=Reeves, Martha - Heatwave
TTITLE7=K.C. and The Sunshine Band - That's The Way I Like It
TTITLE8=Shirley and Company - Shame Shame Shame
TTITLE9=Los Bravos feat Mike Kennedy - Rock Me Softly
TTITLE10=Blue, Barry - Dancing On A Saterday Night
TTITLE11=Middle Of The Road - Chirpy Chirpy Cheep Cheep
TTITLE12=Royal, Billy Joe - Hush
TTITLE13=Lighthouse, Edison - Love Grows
EXTD=
EXTT0=
EXTT1=
EXTT2=
EXTT3=
EXTT4=
EXTT5=
EXTT6=
EXTT7=
EXTT8=
EXTT9=
EXTT10=
EXTT11=
EXTT12=
EXTT13=
PLAYORDER=
